<svg xmlns="http://www.w3.org/2000/svg" viewBox="0 0 48 48">
    <path fill="#00e676" d="M24,4C12.95,4,4,12.95,4,24c0,3.89,1.12,7.52,3.04,10.59L4,44l9.41-3.05C16.48,42.88,20.11,44,24,44c11.05,0,20-8.95,20-20S35.05,4,24,4z"/>
    <path fill="#fff" d="M35.5,28.1c-0.39-0.2-2.3-1.14-2.66-1.27c-0.36-0.13-0.62-0.19-0.88,0.19c-0.26,0.38-1.02,1.27-1.25,1.53c-0.23,0.26-0.46,0.29-0.85,0.1c-0.39-0.2-1.65-0.61-3.14-1.94c-1.16-1.03-1.94-2.31-2.17-2.7c-0.23-0.39-0.02-0.6,0.17-0.79c0.18-0.18,0.39-0.46,0.59-0.69c0.2-0.23,0.26-0.39,0.39-0.65c0.13-0.26,0.07-0.48-0.03-0.68c-0.1-0.2-0.88-2.11-1.2-2.89c-0.32-0.78-0.64-0.67-0.88-0.68c-0.23-0.01-0.49-0.01-0.75-0.01c-0.26,0-0.69,0.1-1.05,0.48c-0.36,0.38-1.38,1.35-1.38,3.29c0,1.94,1.41,3.82,1.61,4.08c0.2,0.26,2.76,4.21,6.69,5.91c0.93,0.4,1.66,0.64,2.23,0.82c0.94,0.3,1.79,0.26,2.47,0.16c0.75-0.11,2.3-0.94,2.63-1.85c0.33-0.91,0.33-1.69,0.23-1.85C36.15,28.4,35.89,28.3,35.5,28.1z"/>
    <path fill="#fff" d="M24,44c-3.89,0-7.52-1.12-10.59-3.04L4,44l3.05-9.41C5.12,31.52,4,27.89,4,24C4,12.95,12.95,4,24,4s20,8.95,20,20S35.05,44,24,44z M13.82,39.17l0.45,0.27c2.79,1.66,5.99,2.53,9.24,2.53c9.92,0,18-8.08,18-18s-8.08-18-18-18s-18,8.08-18,18c0,3.25,0.87,6.45,2.53,9.24l0.27,0.45l-1.7,6.21L13.82,39.17z"/>
</svg>